<?xml version="1.0" encoding="UTF-8"?>
<svg width="104px" height="25px" viewBox="0 0 104 25" version="1.1" xmlns="http://www.w3.org/2000/svg" xmlns:xlink="http://www.w3.org/1999/xlink">
    <!-- Generator: Sketch 59 (86127) - https://sketch.com -->
    <title>logo_104X25</title>
    <desc>Created with Sketch.</desc>
    <defs>
        <polygon id="path-1" points="0 0 104 0 104 25 0 25"></polygon>
    </defs>
    <g id="页面1" stroke="none" stroke-width="1" fill="none" fill-rule="evenodd">
        <g id="icon" transform="translate(-57.000000, -64.000000)">
            <g id="编组-4" transform="translate(57.000000, 64.000000)">
                <g id="编组">
                    <mask id="mask-2" fill="white">
                        <use xlink:href="#path-1"></use>
                    </mask>
                    <g id="Clip-2"></g>
                    <path d="M12.3601466,0 C4.94802674,0 0,3.82340681 0,9.52573255 C0,15.2284925 4.94802674,19.0518993 12.3601466,19.0518993 C19.7722666,19.0518993 24.7202933,15.2284925 24.7202933,9.52573255 C24.7202933,3.82340681 19.7722666,0 12.3601466,0 M12.3601466,15.9441057 C7.1792107,15.9441057 3.72180289,13.3704167 3.72180289,9.52573255 C3.72180289,5.68104841 7.1792107,3.10735935 12.3601466,3.10735935 C17.5410826,3.10735935 20.9984904,5.68104841 20.9984904,9.52573255 C20.9984904,13.3704167 17.5410826,15.9441057 12.3601466,15.9441057 M91.639422,0 C84.2277334,0 79.2792754,3.82340681 79.2792754,9.52573255 C79.2792754,15.2284925 84.2277334,19.0518993 91.639422,19.0518993 C99.0515419,19.0518993 104,15.2284925 104,9.52573255 C104,3.82340681 99.0515419,0 91.639422,0 M91.639422,15.9441057 C86.4584861,15.9441057 83.0010783,13.3704167 83.0010783,9.52573255 C83.0010783,5.68104841 86.4584861,3.10735935 91.639422,3.10735935 C96.820358,3.10735935 100.278197,5.68104841 100.278197,9.52573255 C100.278197,13.3704167 96.820358,15.9441057 91.639422,15.9441057 M65.3538926,0 C61.9439293,0 58.9195601,0.910583086 56.7155488,2.50551474 L56.7155488,0.886266132 L52.993746,0.886266132 L52.993746,25 L56.7155488,25 L56.7155488,16.5463846 C58.9195601,18.140882 61.9439293,19.0518993 65.3538926,19.0518993 C72.7660125,19.0518993 77.7144706,15.2284925 77.7144706,9.52573255 C77.7144706,3.82340681 72.7660125,0 65.3538926,0 M65.3538926,15.9441057 C60.1729567,15.9441057 56.7155488,13.3704167 56.7155488,9.52573255 C56.7155488,5.68104841 60.1729567,3.10735935 65.3538926,3.10735935 C70.5348286,3.10735935 73.9926677,5.68104841 73.9926677,9.52573255 C73.9926677,13.3704167 70.5348286,15.9441057 65.3538926,15.9441057 M38.8570196,0 C35.4470563,0 32.4226871,0.910583086 30.2186759,2.50551474 L30.2186759,0.886266132 L26.496873,0.886266132 L26.496873,25 L30.2186759,25 L30.2186759,16.5463846 C32.4226871,18.140882 35.4470563,19.0518993 38.8570196,19.0518993 C46.2691395,19.0518993 51.2175976,15.2284925 51.2175976,9.52573255 C51.2175976,3.82340681 46.2691395,0 38.8570196,0 M38.8570196,15.9441057 C33.6760837,15.9441057 30.2186759,13.3704167 30.2186759,9.52573255 C30.2186759,5.68104841 33.6760837,3.10735935 38.8570196,3.10735935 C44.0379556,3.10735935 47.4953634,5.68104841 47.4953634,9.52573255 C47.4953634,13.3704167 44.0379556,15.9441057 38.8570196,15.9441057" id="Fill-1" fill="#00CF61" mask="url(#mask-2)"></path>
                </g>
            </g>
        </g>
    </g>
</svg>